# xmcd
#
# Track frame offsets:
# 150
# 23240
# 44225
# 59205
# 78950
# 102677
# 121902
# 133755
# 150632
# 167932
# 187400
# 210447
# 231422
# 246410
# 266190
# 289897
# 309155
# 321035
#
# Disc length: 4541 seconds
#
#
# Revision: 0
# Processed by: cddbd v1.5.2PL0 Copyright (c) Steve Scherf et al.
# Submitted via: FreeRIP 2.944 
#
DISCID=1d11bb12
DTITLE=Celso e Vanderlei - Pagina Virada
DYEAR=1900
DGENRE=Sertanejo
TTITLE0=Pagina Virada
TTITLE1=Trofeu da Vitoria
TTITLE2=Que Deus Maravilhoso
TTITLE3=Gemido da Alma
TTITLE4=Madrugada Fria
TTITLE5=Chega de Sofrer
TTITLE6=Sem Comparacao
TTITLE7=Ainda Vou Te Ver Voltar
TTITLE8=Encontrei Jesus
TTITLE9=O Amor Aconteceu
TTITLE10=Playback 1
TTITLE11=Playback 2
TTITLE12=Playback 3
TTITLE13=Playback 4
TTITLE14=Playback 5
TTITLE15=Playback 6
TTITLE16=Playback 7
TTITLE17=Playback 8
EXTD=
EXTT0=
EXTT1=
EXTT2=
EXTT3=
EXTT4=
EXTT5=
EXTT6=
EXTT7=
EXTT8=
EXTT9=
EXTT10=
EXTT11=
EXTT12=
EXTT13=
EXTT14=
EXTT15=
EXTT16=
EXTT17=
PLAYORDER=
